<svg width="15" height="15" viewBox="0 0 15 15" fill="none" xmlns="http://www.w3.org/2000/svg">
<path d="M14.7847 13.3637L11.2935 9.83076C12.1912 8.79252 12.683 7.48619 12.683 6.12624C12.683 2.94887 10.0261 0.36377 6.76044 0.36377C3.4948 0.36377 0.837891 2.94887 0.837891 6.12624C0.837891 9.30362 3.4948 11.8887 6.76044 11.8887C7.9864 11.8887 9.15469 11.5289 10.1535 10.846L13.6713 14.4057C13.8183 14.5542 14.0161 14.6362 14.228 14.6362C14.4286 14.6362 14.6189 14.5618 14.7633 14.4265C15.0703 14.1391 15.0801 13.6626 14.7847 13.3637ZM6.76044 1.86702C9.17426 1.86702 11.138 3.77766 11.138 6.12624C11.138 8.47483 9.17426 10.3855 6.76044 10.3855C4.34661 10.3855 2.3829 8.47483 2.3829 6.12624C2.3829 3.77766 4.34661 1.86702 6.76044 1.86702Z" fill="black" fill-opacity="0.36"/>
</svg>
