<svg width="30" height="26" viewBox="0 0 30 26" fill="none" xmlns="http://www.w3.org/2000/svg">
<path d="M8.71948 20.7382C7.12091 20.7382 5.81299 21.9047 5.81299 23.3305C5.81299 24.7562 7.12091 25.9228 8.71948 25.9228C10.318 25.9228 11.626 24.7562 11.626 23.3305C11.626 21.9047 10.318 20.7382 8.71948 20.7382ZM0 0V2.59228H2.90649L8.13818 12.4429L6.10363 15.5537C5.95831 15.9425 5.81299 16.461 5.81299 16.8498C5.81299 18.2756 7.12091 19.4421 8.71948 19.4421H26.1584V16.8498H9.30078C9.15545 16.8498 9.01013 16.7202 9.01013 16.5906V16.4609L10.3181 14.2575H21.0721C22.2347 14.2575 23.1066 13.739 23.5426 12.9613L28.7743 4.53649C29.0649 4.27726 29.0649 4.14764 29.0649 3.88842C29.0649 3.11073 28.4836 2.59228 27.6117 2.59228H6.10363L4.79571 0H0ZM23.2519 20.7382C21.6534 20.7382 20.3455 21.9047 20.3455 23.3305C20.3455 24.7562 21.6534 25.9228 23.2519 25.9228C24.8505 25.9228 26.1584 24.7562 26.1584 23.3305C26.1584 21.9047 24.8505 20.7382 23.2519 20.7382Z" fill="#FAF3F3"/>
</svg>
