<svg width="25" height="22" viewBox="0 0 25 22" fill="none" xmlns="http://www.w3.org/2000/svg">
<path d="M17.6252 0.401672C15.413 0.401672 13.4564 1.75615 12.2573 3.42542C11.0583 1.75615 9.10162 0.401672 6.88954 0.401672C3.24071 0.401672 0.282715 3.35968 0.282715 7.00847C0.282715 7.38849 0.316499 7.76047 0.378242 8.12292C0.378242 8.12371 0.378242 8.12423 0.378242 8.12505C0.378242 15.7233 12.2573 21.5984 12.2573 21.5984C12.2573 21.5984 24.1364 15.9229 24.1364 8.12505C24.1364 8.12423 24.1364 8.12371 24.1364 8.12292C24.1982 7.76051 24.2319 7.38849 24.2319 7.00847C24.2319 3.35968 21.2739 0.401672 17.6252 0.401672Z" fill="#FAF3F3"/>
</svg>
